<?xml version="1.0" encoding="UTF-8"?>
<svg xmlns="http://www.w3.org/2000/svg" xmlns:xlink="http://www.w3.org/1999/xlink" width="64px" height="64px" viewBox="0 0 64 64" version="1.1">
<g id="surface1">
<path style=" stroke:none;fill-rule:nonzero;fill:rgb(92.941176%,90.588235%,90.588235%);fill-opacity:1;" d="M 41.476562 12.070312 C 41.476562 7.207031 37.523438 3.25 32.660156 3.25 C 27.796875 3.25 23.839844 7.207031 23.839844 12.070312 L 27.589844 12.070312 C 27.589844 9.273438 29.863281 7 32.660156 7 C 35.453125 7 37.726562 9.273438 37.726562 12.070312 C 37.726562 14.867188 35.453125 17.140625 32.660156 17.140625 L 0 17.140625 L 0 20.890625 L 32.660156 20.890625 C 37.523438 20.890625 41.476562 16.933594 41.476562 12.070312 Z M 41.476562 12.070312 "/>
<path style=" stroke:none;fill-rule:nonzero;fill:rgb(92.941176%,90.588235%,90.588235%);fill-opacity:1;" d="M 49.78125 28.390625 C 53.785156 28.390625 57.578125 29.683594 60.746094 32.128906 L 63.039062 29.164062 C 59.207031 26.203125 54.625 24.640625 49.785156 24.640625 L 43.054688 24.640625 C 46.671875 21.644531 48.980469 17.121094 48.980469 12.070312 L 45.230469 12.070312 C 45.230469 19 39.589844 24.640625 32.660156 24.640625 L 0 24.640625 L 0 28.390625 Z M 49.78125 28.390625 "/>
<path style=" stroke:none;fill-rule:nonzero;fill:rgb(92.941176%,90.588235%,90.588235%);fill-opacity:1;" d="M 49.78125 32.332031 L 0 32.332031 L 0 36.078125 L 49.78125 36.078125 C 55.554688 36.078125 60.25 40.777344 60.25 46.546875 C 60.25 52.320312 55.554688 57.015625 49.78125 57.015625 C 44.011719 57.015625 39.316406 52.320312 39.316406 46.546875 L 35.566406 46.546875 C 35.566406 54.386719 41.945312 60.765625 49.78125 60.765625 C 57.621094 60.765625 64 54.386719 64 46.546875 C 64 38.707031 57.621094 32.332031 49.78125 32.332031 Z M 49.78125 32.332031 "/>
<path style=" stroke:none;fill-rule:nonzero;fill:rgb(92.941176%,90.588235%,90.588235%);fill-opacity:1;" d="M 0 39.847656 L 25.53125 39.847656 L 25.53125 43.597656 L 0 43.597656 Z M 0 39.847656 "/>
</g>
</svg>
